<?xml version="1.0" encoding="UTF-8"?>
<svg width="96px" height="96px" version="1.1" viewBox="0 0 184.94 184.94" xmlns="http://www.w3.org/2000/svg">
 <path d="m92.472 0c-25.534 0-48.654 10.349-65.387 27.085-16.735 16.735-27.085 39.854-27.085 65.387 0 25.534 10.349 48.654 27.085 65.387 16.735 16.735 39.854 27.085 65.387 27.085 25.534 0 48.654-10.349 65.387-27.085 16.735-16.735 27.085-39.854 27.085-65.387 0-1.5545-0.23465-3.0525-0.6735-4.4625-0.14623-0.46968-0.31441-0.92838-0.50417-1.3771-0.37952-0.89736-0.84554-1.7495-1.3848-2.5474-0.53903-0.79815-1.1538-1.5414-1.8323-2.2199-1.0191-1.0191-2.181-1.8918-3.4579-2.585-1.1879-0.64538-2.4763-1.1235-3.8305-1.4298-0.0988-0.02235-0.19419-0.05491-0.2936-0.07533h-4e-3c-0.48836-0.09999-0.98213-0.17454-1.4863-0.22579-0.50436-0.05124-1.0174-0.07899-1.5352-0.07899h-19.657c-8.2843 0-15.002 6.7175-15.002 15.002 0 8.2843 6.7175 15.002 15.002 15.002h2.8455c-2.7665 11.227-8.5681 21.257-16.484 29.173-11.304 11.304-26.921 18.298-44.175 18.298-17.253 0-32.87-6.9938-44.175-18.298-11.304-11.304-18.298-26.921-18.298-44.175 0-17.252 6.9938-32.87 18.298-44.175 11.304-11.304 26.921-18.298 44.175-18.298 5.5333 0 10.972 0.71839 16.183 2.1147 5.2857 1.4164 10.347 3.5004 15.051 6.216 7.1516 4.1422 16.308 1.6996 20.45-5.4522 4.1422-7.1517 1.7034-16.304-5.4483-20.446-7.0735-4.084-14.578-7.1903-22.317-9.2638-7.8125-2.0933-15.854-3.1681-23.919-3.1681z" fill="#878787" fill-rule="evenodd" stroke-width=".26458"/>
 <path d="m68.641 53.562c-3.8385 0-7.6783 1.4662-10.607 4.3947-5.857 5.857-5.857 15.353 0 21.21l13.271 13.267-13.342 13.342c-5.857 5.857-5.857 15.353 0 21.21 5.857 5.8572 15.353 5.8572 21.21 0l13.259-13.259 13.263 13.259c5.857 5.857 15.353 5.857 21.21 0s5.857-15.353 0-21.21l-13.271-13.267 13.342-13.342c5.857-5.857 5.857-15.353 0-21.21-5.857-5.8572-15.353-5.8572-21.21 0l-13.259 13.259-13.259-13.259c-2.9285-2.9285-6.7683-4.3947-10.607-4.3947z" fill="#6b6b6b"/>
</svg>
